# xmcd
#
# Track frame offsets:
#	150
#	39038
#	64391
#	83492
#	99673
#	119208
#	140592
#	156124
#	175655
#
# Disc length: 2504 seconds
#
# Revision: 0
# Processed by: cddbd v1.5.2PL0 Copyright (c) Steve Scherf et al.
# Submitted via: EasyCDDAExtractor 16.0.6.1
#
DISCID=7309c609
DTITLE=Συλλογικός δίσκος - Πόντος, δικαίωμα στη μνήμη
DYEAR=2010
DGENRE=Πααραδ. Πόντου
TTITLE0=Βαμβακίδης Τάκης - Πρόλογος ''Η σφαγή των νηπίων της Σάντας [κ. Ελ. Νυ
TTITLE0=μφοπούλου]
TTITLE1=Καρράς Βασίλης-χορωδία - Ποντιακός ύμνος [Βασ. Καρράς]
TTITLE2=Νικολαΐδης Στάθης - Το τραγούδι της Άγκυρας [παραδοσιακό]
TTITLE3=Νικολαΐδου Πέλα - Δούλα κ' επορώ [Μπ. Κεμανετζίδης-Νάκος Ευσταθιάδης]
TTITLE4=Φωτιάδης Βασίλης - Το τραγούδι του Ευκλείδη [Στάθης Βενιαμίδης]
TTITLE5=Παρχαρίδης Αλέξης - Μοιρολόϊ [''Η καμπάνα Πόντου'' Φίλωνα Κτενίδη]
TTITLE6=Θεοδωρίδης Χρύσανθος - Πού είσαι Μεγ' Αλέξανδρε [Μάκης Ερημίτης]
TTITLE7=Θεοδωρίδης Χρύσανθος - Πεινώ και τρώγω αίματα [Χρ. Θεοδωρίδης]
TTITLE8=Θεοδωρίδης Χρύσανθος - Ο πρόσωπο σ' μανουσιάκ [Χρ. Θεοδωρίδης]
EXTD=
EXTT0=
EXTT1=
EXTT2=
EXTT3=
EXTT4=
EXTT5=
EXTT6=
EXTT7=
EXTT8=
PLAYORDER=
